# Blender 4.0.2
# www.blender.org
mtllib cube.mtl
o Cube
v -1.000000 -1.000000 1.000000
v -1.000000 1.000000 1.000000
v -1.000000 -1.000000 -1.000000
v -1.000000 1.000000 -1.000000
v 1.000000 -1.000000 1.000000
v 1.000000 1.000000 1.000000
v 1.000000 -1.000000 -1.000000
v 1.000000 1.000000 -1.000000
v -1.011429 1.000000 1.002253
v -0.989275 1.000000 -1.000000
v 1.000000 1.000000 -0.990743
v 0.990362 1.000000 1.000000
v 0.000000 2.074010 0.000000
v -1.000000 -0.999897 1.000000
v -1.000000 1.000103 1.000000
v -1.000000 -0.999897 -1.000000
v -1.000000 1.000103 -1.000000
v 1.000000 -0.999897 1.000000
v 1.000000 1.000103 1.000000
v 1.000000 -0.999897 -1.000000
v 1.000000 1.000103 -1.000000
v -1.011428 1.000103 1.002253
v -0.989274 1.000103 -1.000000
v 1.000000 1.000103 -0.990743
v 0.990362 1.000103 1.000000
v 0.000000 2.074113 -0.000000
vn 1.0000 0.0029 -0.0000
vn -0.0000 -0.0000 1.0000
vn -1.0000 -0.0000 -0.0000
vn -0.0000 -0.0000 -1.0000
vn -0.0000 1.0000 -0.0000
vn -0.0008 -0.6810 -0.7323
vn -0.7302 -0.6832 -0.0035
vn -0.0034 -0.6831 0.7303
vn 0.7281 -0.6854 0.0081
vn -1.0000 -0.0029 -0.0000
vn 1.0000 -0.0000 -0.0000
vn -0.0000 -1.0000 -0.0000
vn 0.0008 0.6810 0.7323
vn 0.7302 0.6832 0.0035
vn 0.0034 0.6831 -0.7303
vn -0.7281 0.6854 -0.0081
vt 0.838754 0.668613
vt 0.838754 0.711896
vt 0.882037 0.711896
vt 0.882037 0.690254
vt 0.882037 0.668613
vt 0.838754 0.755178
vt 0.882037 0.755178
vt 0.882037 0.733537
vt 0.838754 0.798461
vt 0.882037 0.798461
vt 0.882037 0.776819
vt 0.838754 0.841743
vt 0.882037 0.841743
vt 0.882037 0.820102
vt 0.795472 0.755178
vt 0.795472 0.798461
vt 0.903678 0.776819
vt 0.903678 0.798461
vt 0.925319 0.798461
vt 0.925319 0.776819
vt 0.903678 0.755178
vt 0.925319 0.755178
vt 0.000670 0.334814
vt 0.000670 0.002196
vt 0.000295 0.000295
vt 0.333288 0.002196
vt 0.333288 0.334814
vt 0.666121 0.668022
vt 0.333504 0.668022
vt 0.333504 0.666238
vt 0.333504 0.335405
vt 0.666121 0.335405
vt 0.667087 0.000295
vt 0.999705 0.000295
vt 0.999705 0.001835
vt 0.999705 0.332913
vt 0.667087 0.332913
vt 0.333879 0.000295
vt 0.666496 0.000295
vt 0.666496 0.001898
vt 0.666496 0.332913
vt 0.333878 0.332913
vt 0.000295 0.335405
vt 0.332913 0.335404
vt 0.332913 0.668022
vt 0.000295 0.668022
vt 0.520809 0.965231
vt 0.520809 0.668613
vt 0.522256 0.669901
vt 0.794881 0.857641
vt 0.667087 0.577813
vt 0.831478 0.333504
vt 0.998165 0.576210
vt 0.998165 0.577813
vt 0.000295 0.999447
vt 0.000295 0.668613
vt 0.244595 0.832775
vt 0.001835 0.999447
vt 0.519221 0.776017
vt 0.520218 0.777496
vt 0.245185 0.965231
vt 0.245185 0.668613
s 0
usemtl Material.003
f 1/1/1 3/2/1 4/3/1 9/4/1 2/5/1
f 3/2/2 7/6/2 8/7/2 10/8/2 4/3/2
f 7/6/3 5/9/3 6/10/3 11/11/3 8/7/3
f 5/9/4 1/12/4 2/13/4 12/14/4 6/10/4
f 3/15/5 1/16/5 5/9/5 7/6/5
f 13/17/6 12/18/6 2/19/6 9/20/6
f 11/11/7 6/10/7 12/18/7 13/17/7
f 8/7/8 11/11/8 13/17/8 10/21/8
f 10/21/9 13/17/9 9/20/9 4/22/9
f 14/23/10 15/24/10 22/25/10 17/26/10 16/27/10
f 16/28/4 17/29/4 23/30/4 21/31/4 20/32/4
f 20/33/11 21/34/11 24/35/11 19/36/11 18/37/11
f 18/38/2 19/39/2 25/40/2 15/41/2 14/42/2
f 16/43/12 20/44/12 18/45/12 14/46/12
f 26/47/13 22/48/13 15/49/13 25/50/13
f 24/51/14 26/52/14 25/53/14 19/54/14
f 21/55/15 23/56/15 26/57/15 24/58/15
f 23/59/16 17/60/16 22/61/16 26/62/16
